<svg width="245" height="58" viewBox="0 0 245 58" fill="none" xmlns="http://www.w3.org/2000/svg">
<path fill-rule="evenodd" clip-rule="evenodd" d="M56.582 12.1336C55.647 15.5257 53.6284 18.536 50.8213 20.7243C48.0143 22.9126 44.5659 24.1641 40.9805 24.2958H23.613L13.2217 32.3277C10.3028 34.643 6.47899 32.9995 7.2671 29.7124L8.5806 24.2958L12.2292 9.04662C12.9368 6.51709 14.4512 4.27511 16.5515 2.64771C18.6519 1.02031 21.2282 0.0926343 23.9049 0L46.8183 0C53.809 0 58.1874 5.43083 56.582 12.1336Z" fill="url(#paint0_linear_4_797)"/>
<path fill-rule="evenodd" clip-rule="evenodd" d="M7.19372 30.1018L2.91774 48.0055L1.60423 53.4792C0.816126 56.752 4.52314 58.3956 7.5588 56.0803L17.9501 48.0198H35.5219C39.0322 47.8913 42.4089 46.6686 45.16 44.5298C47.9112 42.391 49.8931 39.4479 50.817 36.1292C52.3932 29.5693 48.1608 24.2957 41.2284 24.2957H40.9803H23.6128L13.2215 32.3276C10.4203 34.5494 6.78586 33.1254 7.19372 30.1018Z" fill="url(#paint1_linear_4_797)"/>
<path d="M91.9305 24.0174C94.381 23.798 98.6012 21.2968 98.6012 16.2505C98.6012 12.3451 95.6062 9.80005 90.7961 9.80005H76.88C75.9938 9.80005 75.2242 10.3979 75.0219 11.2434L68.7457 37.4772C68.5351 38.3574 69.2167 39.2 70.1392 39.2H83.8077C91.5675 39.2 96.3777 34.8998 96.3777 29.3708C96.3777 25.992 94.2448 24.3684 91.8851 24.1929L91.9305 24.0174ZM79.9051 21.955L81.4026 15.6362H88.2548C89.8885 15.6362 91.0229 16.6015 91.0229 18.0935C91.0229 20.2875 89.0717 21.955 86.4851 21.955H79.9051ZM77.2278 33.3639L78.7707 26.9135H85.8951C87.7103 26.9135 88.8448 27.8789 88.8448 29.4147C88.8448 31.6087 87.1204 33.3639 84.2161 33.3639H77.2278Z" fill="#131B3A"/>
<path d="M111.092 16.0311H125.68C126.57 16.0311 127.342 15.4278 127.54 14.5773L128.254 11.515C128.458 10.6369 127.777 9.80005 126.858 9.80005H106.662C105.775 9.80005 105.005 10.3992 104.803 11.246L98.5678 37.4792C98.3587 38.3588 99.0401 39.2 99.9618 39.2H120.29C121.175 39.2 121.945 38.6032 122.148 37.7586L122.884 34.6932C123.096 33.8127 122.414 32.969 121.491 32.969H107.098L108.414 27.44H121.65C122.536 27.44 123.306 26.8422 123.508 25.9967L124.157 23.2829C124.368 22.4027 123.686 21.56 122.764 21.56H109.776L111.092 16.0311Z" fill="#131B3A"/>
<path d="M139.498 16.0311H154.086C154.976 16.0311 155.748 15.4278 155.946 14.5773L156.66 11.515C156.864 10.6369 156.184 9.80005 155.264 9.80005H135.068C134.181 9.80005 133.411 10.3992 133.21 11.246L126.974 37.4792C126.765 38.3588 127.446 39.2 128.368 39.2H148.696C149.582 39.2 150.351 38.6032 150.554 37.7586L151.29 34.6932C151.502 33.8127 150.82 32.969 149.897 32.969H135.505L136.82 27.44H150.056C150.942 27.44 151.712 26.8422 151.914 25.9967L152.563 23.2829C152.774 22.4027 152.092 21.56 151.17 21.56H138.182L139.498 16.0311Z" fill="#131B3A"/>
<path d="M163.474 9.80005C162.587 9.80005 161.817 10.3992 161.616 11.246L155.38 37.4791C155.171 38.3588 155.852 39.2 156.774 39.2H160.897C161.785 39.2 162.555 38.6004 162.756 37.7531L164.546 30.2045H172.079C180.383 30.2045 186.056 25.3338 186.056 18.5762C186.056 13.1789 181.881 9.80005 175.755 9.80005H163.474ZM165.998 24.149L167.949 15.9872H174.62C177.161 15.9872 178.477 17.2598 178.477 19.2783C178.477 22.1305 175.845 24.149 172.351 24.149H165.998Z" fill="#131B3A"/>
<path d="M198.216 16.0311H212.803C213.694 16.0311 214.466 15.4278 214.664 14.5773L215.378 11.515C215.582 10.6369 214.901 9.80005 213.982 9.80005H193.786C192.899 9.80005 192.129 10.3992 191.927 11.246L185.692 37.4791C185.483 38.3588 186.164 39.2 187.086 39.2H207.414C208.299 39.2 209.068 38.6032 209.271 37.7586L210.008 34.6932C210.22 33.8127 209.538 32.969 208.615 32.969H194.222L195.538 27.44H208.774C209.66 27.44 210.429 26.8422 210.632 25.9967L211.281 23.2829C211.492 22.4027 210.81 21.56 209.887 21.56H196.9L198.216 16.0311Z" fill="#131B3A"/>
<path d="M245 18.0496C245 12.8717 241.098 9.80005 235.017 9.80005H222.192C221.305 9.80005 220.535 10.3992 220.333 11.246L214.098 37.4791C213.889 38.3588 214.57 39.2 215.492 39.2H219.617C220.504 39.2 221.274 38.6014 221.475 37.7551L223.536 29.1075H228.119L233.115 38.2154C233.448 38.8218 234.094 39.2 234.796 39.2H239.539C240.638 39.2 241.327 38.0366 240.782 37.1015L235.788 28.5371C241.37 27.089 245 23.052 245 18.0496ZM224.988 23.052L226.667 15.9872H233.792C235.97 15.9872 237.422 16.9526 237.422 18.8395C237.422 21.2529 235.108 23.052 231.477 23.052H224.988Z" fill="#131B3A"/>
<defs>
<linearGradient id="paint0_linear_4_797" x1="32.9243" y1="-0.571667" x2="31.4967" y2="34.2739" gradientUnits="userSpaceOnUse">
<stop stop-color="#FF9B71"/>
<stop offset="1" stop-color="#DB48F3"/>
</linearGradient>
<linearGradient id="paint1_linear_4_797" x1="26.7506" y1="20.2225" x2="25.8129" y2="71.9877" gradientUnits="userSpaceOnUse">
<stop stop-color="#B547E9"/>
<stop offset="1" stop-color="#4958F5"/>
</linearGradient>
</defs>
</svg>
